<svg xmlns="http://www.w3.org/2000/svg" xmlns:xlink="http://www.w3.org/1999/xlink" contentStyleType="text/css" height="669px"  style="width:1193px;height:669px;background:#FFFFFF;" version="1.1" viewBox="0 0 1193 669" width="1193px" zoomAndPan="magnify"><defs/><g><!--class VendingMachine--><g id="elem_VendingMachine"><rect codeLine="1" fill="#F1F1F1" height="227.2656" id="VendingMachine" rx="2.5" ry="2.5" style="stroke:#181818;stroke-width:0.5;" width="309" x="441.5" y="7"/><ellipse cx="534.25" cy="23" fill="#ADD1B2" rx="11" ry="11" style="stroke:#181818;stroke-width:1.0;"/><path d="M537.2188,28.6406 Q536.6406,28.9375 536,29.0781 Q535.3594,29.2344 534.6563,29.2344 Q532.1563,29.2344 530.8281,27.5938 Q529.5156,25.9375 529.5156,22.8125 Q529.5156,19.6875 530.8281,18.0313 Q532.1563,16.375 534.6563,16.375 Q535.3594,16.375 536,16.5313 Q536.6563,16.6875 537.2188,16.9844 L537.2188,19.7031 Q536.5938,19.125 536,18.8594 Q535.4063,18.5781 534.7813,18.5781 Q533.4375,18.5781 532.75,19.6563 Q532.0625,20.7188 532.0625,22.8125 Q532.0625,24.9063 532.75,25.9844 Q533.4375,27.0469 534.7813,27.0469 Q535.4063,27.0469 536,26.7813 Q536.5938,26.5 537.2188,25.9219 L537.2188,28.6406 Z " fill="#000000"/><text fill="#000000" font-family="sans-serif" font-size="14" lengthAdjust="spacing" textLength="115" x="554.75" y="27.8467">VendingMachine</text><line style="stroke:#181818;stroke-width:0.5;" x1="442.5" x2="749.5" y1="39" y2="39"/><rect fill="none" height="6" style="stroke:#C82930;stroke-width:1.0;" width="6" x="449.5" y="49.6484"/><text fill="#000000" font-family="sans-serif" font-size="14" lengthAdjust="spacing" textLength="92" x="461.5" y="55.9951">status: String</text><rect fill="none" height="6" style="stroke:#C82930;stroke-width:1.0;" width="6" x="449.5" y="65.9453"/><text fill="#000000" font-family="sans-serif" font-size="14" lengthAdjust="spacing" textLength="172" x="461.5" y="72.292">products: List&lt;Product&gt;</text><rect fill="none" height="6" style="stroke:#C82930;stroke-width:1.0;" width="6" x="449.5" y="82.2422"/><text fill="#000000" font-family="sans-serif" font-size="14" lengthAdjust="spacing" textLength="183" x="461.5" y="88.5889">controlPanel: ControlPanel</text><rect fill="none" height="6" style="stroke:#C82930;stroke-width:1.0;" width="6" x="449.5" y="98.5391"/><text fill="#000000" font-family="sans-serif" font-size="14" lengthAdjust="spacing" textLength="216" x="461.5" y="104.8857">shakeDetector: ShakeDetector</text><rect fill="none" height="6" style="stroke:#C82930;stroke-width:1.0;" width="6" x="449.5" y="114.8359"/><text fill="#000000" font-family="sans-serif" font-size="14" lengthAdjust="spacing" textLength="269" x="461.5" y="121.1826">paymentProcessor: PaymentProcessor</text><line style="stroke:#181818;stroke-width:0.5;" x1="442.5" x2="749.5" y1="128.4844" y2="128.4844"/><ellipse cx="452.5" cy="142.1328" fill="#84BE84" rx="3" ry="3" style="stroke:#038048;stroke-width:1.0;"/><text fill="#000000" font-family="sans-serif" font-size="14" lengthAdjust="spacing" textLength="126" x="461.5" y="145.4795">getStatus(): String</text><ellipse cx="452.5" cy="158.4297" fill="#84BE84" rx="3" ry="3" style="stroke:#038048;stroke-width:1.0;"/><text fill="#000000" font-family="sans-serif" font-size="14" lengthAdjust="spacing" textLength="283" x="461.5" y="161.7764">dispenseProduct(productId: int): Product</text><ellipse cx="452.5" cy="174.7266" fill="#84BE84" rx="3" ry="3" style="stroke:#038048;stroke-width:1.0;"/><text fill="#000000" font-family="sans-serif" font-size="14" lengthAdjust="spacing" textLength="234" x="461.5" y="178.0732">checkProductSlot(slotId: int): bool</text><ellipse cx="452.5" cy="191.0234" fill="#84BE84" rx="3" ry="3" style="stroke:#038048;stroke-width:1.0;"/><text fill="#000000" font-family="sans-serif" font-size="14" lengthAdjust="spacing" textLength="133" x="461.5" y="194.3701">lockMachine(): void</text><ellipse cx="452.5" cy="207.3203" fill="#84BE84" rx="3" ry="3" style="stroke:#038048;stroke-width:1.0;"/><text fill="#000000" font-family="sans-serif" font-size="14" lengthAdjust="spacing" textLength="212" x="461.5" y="210.667">enterMaintenanceMode(): void</text><ellipse cx="452.5" cy="223.6172" fill="#84BE84" rx="3" ry="3" style="stroke:#038048;stroke-width:1.0;"/><text fill="#000000" font-family="sans-serif" font-size="14" lengthAdjust="spacing" textLength="199" x="461.5" y="226.9639">exitMaintenanceMode(): void</text></g><!--class Product--><g id="elem_Product"><rect codeLine="15" fill="#F1F1F1" height="178.375" id="Product" rx="2.5" ry="2.5" style="stroke:#181818;stroke-width:0.5;" width="258" x="7" y="294.27"/><ellipse cx="104.75" cy="310.27" fill="#ADD1B2" rx="11" ry="11" style="stroke:#181818;stroke-width:1.0;"/><path d="M107.7188,315.9106 Q107.1406,316.2075 106.5,316.3481 Q105.8594,316.5044 105.1563,316.5044 Q102.6563,316.5044 101.3281,314.8638 Q100.0156,313.2075 100.0156,310.0825 Q100.0156,306.9575 101.3281,305.3013 Q102.6563,303.645 105.1563,303.645 Q105.8594,303.645 106.5,303.8013 Q107.1563,303.9575 107.7188,304.2544 L107.7188,306.9731 Q107.0938,306.395 106.5,306.1294 Q105.9063,305.8481 105.2813,305.8481 Q103.9375,305.8481 103.25,306.9263 Q102.5625,307.9888 102.5625,310.0825 Q102.5625,312.1763 103.25,313.2544 Q103.9375,314.3169 105.2813,314.3169 Q105.9063,314.3169 106.5,314.0513 Q107.0938,313.77 107.7188,313.1919 L107.7188,315.9106 Z " fill="#000000"/><text fill="#000000" font-family="sans-serif" font-size="14" lengthAdjust="spacing" textLength="54" x="125.25" y="315.1167">Product</text><line style="stroke:#181818;stroke-width:0.5;" x1="8" x2="264" y1="326.27" y2="326.27"/><rect fill="none" height="6" style="stroke:#C82930;stroke-width:1.0;" width="6" x="15" y="336.9184"/><text fill="#000000" font-family="sans-serif" font-size="14" lengthAdjust="spacing" textLength="88" x="27" y="343.2651">name: String</text><rect fill="none" height="6" style="stroke:#C82930;stroke-width:1.0;" width="6" x="15" y="353.2153"/><text fill="#000000" font-family="sans-serif" font-size="14" lengthAdjust="spacing" textLength="72" x="27" y="359.562">price: float</text><rect fill="none" height="6" style="stroke:#C82930;stroke-width:1.0;" width="6" x="15" y="369.5122"/><text fill="#000000" font-family="sans-serif" font-size="14" lengthAdjust="spacing" textLength="81" x="27" y="375.8589">quantity: int</text><line style="stroke:#181818;stroke-width:0.5;" x1="8" x2="264" y1="383.1606" y2="383.1606"/><ellipse cx="18" cy="396.8091" fill="#84BE84" rx="3" ry="3" style="stroke:#038048;stroke-width:1.0;"/><text fill="#000000" font-family="sans-serif" font-size="14" lengthAdjust="spacing" textLength="122" x="27" y="400.1557">getName(): String</text><ellipse cx="18" cy="413.1059" fill="#84BE84" rx="3" ry="3" style="stroke:#038048;stroke-width:1.0;"/><text fill="#000000" font-family="sans-serif" font-size="14" lengthAdjust="spacing" textLength="105" x="27" y="416.4526">getPrice(): float</text><ellipse cx="18" cy="429.4028" fill="#84BE84" rx="3" ry="3" style="stroke:#038048;stroke-width:1.0;"/><text fill="#000000" font-family="sans-serif" font-size="14" lengthAdjust="spacing" textLength="116" x="27" y="432.7495">getQuantity(): int</text><ellipse cx="18" cy="445.6997" fill="#84BE84" rx="3" ry="3" style="stroke:#038048;stroke-width:1.0;"/><text fill="#000000" font-family="sans-serif" font-size="14" lengthAdjust="spacing" textLength="232" x="27" y="449.0464">reduceQuantity(amount: int): void</text><ellipse cx="18" cy="461.9966" fill="#84BE84" rx="3" ry="3" style="stroke:#038048;stroke-width:1.0;"/><text fill="#000000" font-family="sans-serif" font-size="14" lengthAdjust="spacing" textLength="178" x="27" y="465.3432">restock(amount: int): void</text></g><!--class ControlPanel--><g id="elem_ControlPanel"><rect codeLine="26" fill="#F1F1F1" height="113.1875" id="ControlPanel" rx="2.5" ry="2.5" style="stroke:#181818;stroke-width:0.5;" width="309" x="300.5" y="326.86"/><ellipse cx="406.75" cy="342.86" fill="#ADD1B2" rx="11" ry="11" style="stroke:#181818;stroke-width:1.0;"/><path d="M409.7188,348.5006 Q409.1406,348.7975 408.5,348.9381 Q407.8594,349.0944 407.1563,349.0944 Q404.6563,349.0944 403.3281,347.4538 Q402.0156,345.7975 402.0156,342.6725 Q402.0156,339.5475 403.3281,337.8913 Q404.6563,336.235 407.1563,336.235 Q407.8594,336.235 408.5,336.3913 Q409.1563,336.5475 409.7188,336.8444 L409.7188,339.5631 Q409.0938,338.985 408.5,338.7194 Q407.9063,338.4381 407.2813,338.4381 Q405.9375,338.4381 405.25,339.5163 Q404.5625,340.5788 404.5625,342.6725 Q404.5625,344.7663 405.25,345.8444 Q405.9375,346.9069 407.2813,346.9069 Q407.9063,346.9069 408.5,346.6413 Q409.0938,346.36 409.7188,345.7819 L409.7188,348.5006 Z " fill="#000000"/><text fill="#000000" font-family="sans-serif" font-size="14" lengthAdjust="spacing" textLength="88" x="427.25" y="347.7067">ControlPanel</text><line style="stroke:#181818;stroke-width:0.5;" x1="301.5" x2="608.5" y1="358.86" y2="358.86"/><rect fill="none" height="6" style="stroke:#C82930;stroke-width:1.0;" width="6" x="308.5" y="369.5084"/><text fill="#000000" font-family="sans-serif" font-size="14" lengthAdjust="spacing" textLength="159" x="320.5" y="375.8551">displayMessage: String</text><rect fill="none" height="6" style="stroke:#C82930;stroke-width:1.0;" width="6" x="308.5" y="385.8053"/><text fill="#000000" font-family="sans-serif" font-size="14" lengthAdjust="spacing" textLength="115" x="320.5" y="392.152">userInput: String</text><line style="stroke:#181818;stroke-width:0.5;" x1="301.5" x2="608.5" y1="399.4538" y2="399.4538"/><ellipse cx="311.5" cy="413.1022" fill="#84BE84" rx="3" ry="3" style="stroke:#038048;stroke-width:1.0;"/><text fill="#000000" font-family="sans-serif" font-size="14" lengthAdjust="spacing" textLength="283" x="320.5" y="416.4489">acceptCommand(command: String): void</text><ellipse cx="311.5" cy="429.3991" fill="#84BE84" rx="3" ry="3" style="stroke:#038048;stroke-width:1.0;"/><text fill="#000000" font-family="sans-serif" font-size="14" lengthAdjust="spacing" textLength="270" x="320.5" y="432.7457">displayMessage(message: String): void</text></g><!--class ShakeDetector--><g id="elem_ShakeDetector"><rect codeLine="33" fill="#F1F1F1" height="113.1875" id="ShakeDetector" rx="2.5" ry="2.5" style="stroke:#181818;stroke-width:0.5;" width="187" x="644.5" y="326.86"/><ellipse cx="682.45" cy="342.86" fill="#ADD1B2" rx="11" ry="11" style="stroke:#181818;stroke-width:1.0;"/><path d="M685.4188,348.5006 Q684.8406,348.7975 684.2,348.9381 Q683.5594,349.0944 682.8563,349.0944 Q680.3563,349.0944 679.0281,347.4538 Q677.7156,345.7975 677.7156,342.6725 Q677.7156,339.5475 679.0281,337.8913 Q680.3563,336.235 682.8563,336.235 Q683.5594,336.235 684.2,336.3913 Q684.8563,336.5475 685.4188,336.8444 L685.4188,339.5631 Q684.7938,338.985 684.2,338.7194 Q683.6063,338.4381 682.9813,338.4381 Q681.6375,338.4381 680.95,339.5163 Q680.2625,340.5788 680.2625,342.6725 Q680.2625,344.7663 680.95,345.8444 Q681.6375,346.9069 682.9813,346.9069 Q683.6063,346.9069 684.2,346.6413 Q684.7938,346.36 685.4188,345.7819 L685.4188,348.5006 Z " fill="#000000"/><text fill="#000000" font-family="sans-serif" font-size="14" lengthAdjust="spacing" textLength="104" x="701.55" y="347.7067">ShakeDetector</text><line style="stroke:#181818;stroke-width:0.5;" x1="645.5" x2="830.5" y1="358.86" y2="358.86"/><rect fill="none" height="6" style="stroke:#C82930;stroke-width:1.0;" width="6" x="652.5" y="369.5084"/><text fill="#000000" font-family="sans-serif" font-size="14" lengthAdjust="spacing" textLength="128" x="664.5" y="375.8551">sensitivityLevel: int</text><line style="stroke:#181818;stroke-width:0.5;" x1="645.5" x2="830.5" y1="383.1569" y2="383.1569"/><ellipse cx="655.5" cy="396.8053" fill="#84BE84" rx="3" ry="3" style="stroke:#038048;stroke-width:1.0;"/><text fill="#000000" font-family="sans-serif" font-size="14" lengthAdjust="spacing" textLength="161" x="664.5" y="400.152">setSensitivityLevel(): int</text><ellipse cx="655.5" cy="413.1022" fill="#84BE84" rx="3" ry="3" style="stroke:#038048;stroke-width:1.0;"/><text fill="#000000" font-family="sans-serif" font-size="14" lengthAdjust="spacing" textLength="137" x="664.5" y="416.4489">detectShake(): bool</text><ellipse cx="655.5" cy="429.3991" fill="#84BE84" rx="3" ry="3" style="stroke:#038048;stroke-width:1.0;"/><text fill="#000000" font-family="sans-serif" font-size="14" lengthAdjust="spacing" textLength="152" x="664.5" y="432.7457">alertTechnician(): void</text></g><!--class Payment--><g id="elem_Payment"><rect codeLine="40" fill="#F1F1F1" height="129.4844" id="Payment" rx="2.5" ry="2.5" style="stroke:#181818;stroke-width:0.5;" width="151" x="950.5" y="532.65"/><ellipse cx="992.05" cy="548.65" fill="#ADD1B2" rx="11" ry="11" style="stroke:#181818;stroke-width:1.0;"/><path d="M995.0188,554.2906 Q994.4406,554.5875 993.8,554.7281 Q993.1594,554.8844 992.4563,554.8844 Q989.9563,554.8844 988.6281,553.2438 Q987.3156,551.5875 987.3156,548.4625 Q987.3156,545.3375 988.6281,543.6813 Q989.9563,542.025 992.4563,542.025 Q993.1594,542.025 993.8,542.1813 Q994.4563,542.3375 995.0188,542.6344 L995.0188,545.3531 Q994.3938,544.775 993.8,544.5094 Q993.2063,544.2281 992.5813,544.2281 Q991.2375,544.2281 990.55,545.3063 Q989.8625,546.3688 989.8625,548.4625 Q989.8625,550.5563 990.55,551.6344 Q991.2375,552.6969 992.5813,552.6969 Q993.2063,552.6969 993.8,552.4313 Q994.3938,552.15 995.0188,551.5719 L995.0188,554.2906 Z " fill="#000000"/><text fill="#000000" font-family="sans-serif" font-size="14" lengthAdjust="spacing" textLength="60" x="1011.95" y="553.4967">Payment</text><line style="stroke:#181818;stroke-width:0.5;" x1="951.5" x2="1100.5" y1="564.65" y2="564.65"/><rect fill="none" height="6" style="stroke:#C82930;stroke-width:1.0;" width="6" x="958.5" y="575.2984"/><text fill="#000000" font-family="sans-serif" font-size="14" lengthAdjust="spacing" textLength="91" x="970.5" y="581.6451">amount: float</text><rect fill="none" height="6" style="stroke:#C82930;stroke-width:1.0;" width="6" x="958.5" y="591.5953"/><text fill="#000000" font-family="sans-serif" font-size="14" lengthAdjust="spacing" textLength="79" x="970.5" y="597.942">type: String</text><line style="stroke:#181818;stroke-width:0.5;" x1="951.5" x2="1100.5" y1="605.2438" y2="605.2438"/><ellipse cx="961.5" cy="618.8922" fill="#84BE84" rx="3" ry="3" style="stroke:#038048;stroke-width:1.0;"/><text fill="#000000" font-family="sans-serif" font-size="14" lengthAdjust="spacing" textLength="125" x="970.5" y="622.2389">getAmount(): float</text><ellipse cx="961.5" cy="635.1891" fill="#84BE84" rx="3" ry="3" style="stroke:#038048;stroke-width:1.0;"/><text fill="#000000" font-family="sans-serif" font-size="14" lengthAdjust="spacing" textLength="116" x="970.5" y="638.5357">getType(): String</text><ellipse cx="961.5" cy="651.4859" fill="#84BE84" rx="3" ry="3" style="stroke:#038048;stroke-width:1.0;"/><text fill="#000000" font-family="sans-serif" font-size="14" lengthAdjust="spacing" textLength="101" x="970.5" y="654.8326">validate(): bool</text></g><!--class PaymentProcessor--><g id="elem_PaymentProcessor"><rect codeLine="48" fill="#F1F1F1" height="113.1875" id="PaymentProcessor" rx="2.5" ry="2.5" style="stroke:#181818;stroke-width:0.5;" width="320" x="866" y="326.86"/><ellipse cx="956.75" cy="342.86" fill="#ADD1B2" rx="11" ry="11" style="stroke:#181818;stroke-width:1.0;"/><path d="M959.7188,348.5006 Q959.1406,348.7975 958.5,348.9381 Q957.8594,349.0944 957.1563,349.0944 Q954.6563,349.0944 953.3281,347.4538 Q952.0156,345.7975 952.0156,342.6725 Q952.0156,339.5475 953.3281,337.8913 Q954.6563,336.235 957.1563,336.235 Q957.8594,336.235 958.5,336.3913 Q959.1563,336.5475 959.7188,336.8444 L959.7188,339.5631 Q959.0938,338.985 958.5,338.7194 Q957.9063,338.4381 957.2813,338.4381 Q955.9375,338.4381 955.25,339.5163 Q954.5625,340.5788 954.5625,342.6725 Q954.5625,344.7663 955.25,345.8444 Q955.9375,346.9069 957.2813,346.9069 Q957.9063,346.9069 958.5,346.6413 Q959.0938,346.36 959.7188,345.7819 L959.7188,348.5006 Z " fill="#000000"/><text fill="#000000" font-family="sans-serif" font-size="14" lengthAdjust="spacing" textLength="130" x="977.25" y="347.7067">PaymentProcessor</text><line style="stroke:#181818;stroke-width:0.5;" x1="867" x2="1185" y1="358.86" y2="358.86"/><rect fill="none" height="6" style="stroke:#C82930;stroke-width:1.0;" width="6" x="874" y="369.5084"/><text fill="#000000" font-family="sans-serif" font-size="14" lengthAdjust="spacing" textLength="229" x="886" y="375.8551">acceptedPayments: List&lt;String&gt;</text><line style="stroke:#181818;stroke-width:0.5;" x1="867" x2="1185" y1="383.1569" y2="383.1569"/><ellipse cx="877" cy="396.8053" fill="#84BE84" rx="3" ry="3" style="stroke:#038048;stroke-width:1.0;"/><text fill="#000000" font-family="sans-serif" font-size="14" lengthAdjust="spacing" textLength="294" x="886" y="400.152">processPayment(payment: Payment): bool</text><ellipse cx="877" cy="413.1022" fill="#84BE84" rx="3" ry="3" style="stroke:#038048;stroke-width:1.0;"/><text fill="#000000" font-family="sans-serif" font-size="14" lengthAdjust="spacing" textLength="243" x="886" y="416.4489">refundPayment(amount: float): void</text><ellipse cx="877" cy="429.3991" fill="#84BE84" rx="3" ry="3" style="stroke:#038048;stroke-width:1.0;"/><text fill="#000000" font-family="sans-serif" font-size="14" lengthAdjust="spacing" textLength="273" x="886" y="432.7457">verifyPayment(payment: Payment): bool</text></g><!--link VendingMachine to Product--><g id="link_VendingMachine_Product"><path codeLine="55" d="M441.35,205.48 C390.67,233.35 334.23,264.79 283,294.27 C277.2,297.61 281.6397,294.9838 275.6697,298.4738 " fill="none" id="VendingMachine-to-Product" style="stroke:#181818;stroke-width:1.0;"/><polygon fill="#181818" points="265.31,304.53,272.5086,304.9551,275.6697,298.4738,268.4711,298.0487,265.31,304.53" style="stroke:#181818;stroke-width:1.0;"/></g><!--reverse link VendingMachine to ControlPanel--><g id="link_VendingMachine_ControlPanel"><path codeLine="56" d="M529.271,245.075 C512.071,276.875 499.82,299.54 485.29,326.43 " fill="none" id="VendingMachine-backto-ControlPanel" style="stroke:#181818;stroke-width:1.0;"/><polygon fill="none" points="534.98,234.52,528.6072,237.8945,529.271,245.075,535.6438,241.7005,534.98,234.52" style="stroke:#181818;stroke-width:1.0;"/></g><!--reverse link VendingMachine to ShakeDetector--><g id="link_VendingMachine_ShakeDetector"><path codeLine="57" d="M663.1972,245.0597 C680.5072,276.8597 692.86,299.54 707.49,326.43 " fill="none" id="VendingMachine-backto-ShakeDetector" style="stroke:#181818;stroke-width:1.0;"/><polygon fill="none" points="657.46,234.52,656.8154,241.7022,663.1972,245.0597,663.8418,237.8775,657.46,234.52" style="stroke:#181818;stroke-width:1.0;"/></g><!--reverse link VendingMachine to PaymentProcessor--><g id="link_VendingMachine_PaymentProcessor"><path codeLine="58" d="M761.2002,221.8431 C822.4502,258.9931 880.51,294.21 933.74,326.5 " fill="none" id="VendingMachine-backto-PaymentProcessor" style="stroke:#181818;stroke-width:1.0;"/><polygon fill="none" points="750.94,215.62,753.9957,222.1517,761.2002,221.8431,758.1445,215.3115,750.94,215.62" style="stroke:#181818;stroke-width:1.0;"/></g><!--link PaymentProcessor to Payment--><g id="link_PaymentProcessor_Payment"><path codeLine="59" d="M1026,440.42 C1026,468.62 1026,502.96 1026,532.23 " fill="none" id="PaymentProcessor-Payment" style="stroke:#181818;stroke-width:1.0;"/></g><!--SRC=[XLJ1Rjim3BtdAtnq5_W7WcB0q5qAD4M65Bjp4fC8aILFeeqPm_vzb2mxafDX5niY7yd7Hqf2W_VLTpHIcVCUn4KPh7vlgghn1DJxNNKanwvWwPoLlI2slIbFpuVf-3cuX3Nah3w0GRshNh9JJ7M1Atv5Ga7MSSRy61F3sA8XJYZG-m0vh2oCsfwHZf5J_PInsahbEpGU4vqwiNoLkqePOcXo1AoueBYcyr5RgZr_RiWVrWQ-Mst5DMaHQWrMoM1cGkZsm5WqO0JkhIpzlnJzo_rdin5HwbHzqjX0YwN2Ih3Xf2q4litF7Wmf6YF1fC4xnvGAiF4G0eDr3Wt6Roaws5EyGowEYmDQsnkQsv_xSEY95NZaNTh8Hppr4kQWOTpplE1STDLxTA-cwoad3K9WHo-sRS78Map_6P2HATFMRPd-ZbUnMscHUJiKgO4RViCXx6SIm_D2hNoPL38cYVdgR3T0ewCF51UZX0BpOC3JwawrPmcNYTBOuMfsNo9cFRmF1fPZ7a0h2NHZiowvt9PKEogCCdddQpib3BTssqq12L2dQxZSlgnhXwVUp9dgegjiLWCwTHh_buvfhzwRflcqtDALopPD-Pmyy9VloGF0tMjo9zWDz1S0]--></g></svg>